<svg xmlns="http://www.w3.org/2000/svg" xmlns:xlink="http://www.w3.org/1999/xlink" width="500" zoomAndPan="magnify" viewBox="0 0 375 374.999991" height="500" preserveAspectRatio="xMidYMid meet" version="1.0"><defs><clipPath id="bde1026413"><path d="M 26.078125 42.625 L 348.753906 42.625 L 348.753906 332.566406 L 26.078125 332.566406 Z M 26.078125 42.625 " clip-rule="nonzero"/></clipPath><clipPath id="f3a90d7179"><path d="M 141.351562 142.8125 L 187.691406 142.8125 L 187.691406 189.152344 L 141.351562 189.152344 Z M 141.351562 142.8125 " clip-rule="nonzero"/></clipPath><clipPath id="1fca40c225"><path d="M 164.519531 142.8125 C 151.726562 142.8125 141.351562 153.1875 141.351562 165.980469 C 141.351562 178.777344 151.726562 189.152344 164.519531 189.152344 C 177.316406 189.152344 187.691406 178.777344 187.691406 165.980469 C 187.691406 153.1875 177.316406 142.8125 164.519531 142.8125 Z M 164.519531 142.8125 " clip-rule="nonzero"/></clipPath><clipPath id="a528a738cb"><path d="M 143.003906 224.421875 L 189.339844 224.421875 L 189.339844 270.757812 L 143.003906 270.757812 Z M 143.003906 224.421875 " clip-rule="nonzero"/></clipPath><clipPath id="2e845c7ec4"><path d="M 166.171875 224.421875 C 153.375 224.421875 143.003906 234.796875 143.003906 247.589844 C 143.003906 260.386719 153.375 270.757812 166.171875 270.757812 C 178.96875 270.757812 189.339844 260.386719 189.339844 247.589844 C 189.339844 234.796875 178.96875 224.421875 166.171875 224.421875 Z M 166.171875 224.421875 " clip-rule="nonzero"/></clipPath><clipPath id="3f46a3ddbc"><path d="M 180.863281 184.199219 L 227.199219 184.199219 L 227.199219 230.535156 L 180.863281 230.535156 Z M 180.863281 184.199219 " clip-rule="nonzero"/></clipPath><clipPath id="17c7de5fef"><path d="M 204.03125 184.199219 C 191.234375 184.199219 180.863281 194.570312 180.863281 207.367188 C 180.863281 220.164062 191.234375 230.535156 204.03125 230.535156 C 216.828125 230.535156 227.199219 220.164062 227.199219 207.367188 C 227.199219 194.570312 216.828125 184.199219 204.03125 184.199219 Z M 204.03125 184.199219 " clip-rule="nonzero"/></clipPath></defs><rect x="-37.5" width="450" fill="#ffffff" y="-37.499999" height="449.999989" fill-opacity="1"/><rect x="-37.5" width="450" fill="#ffffff" y="-37.499999" height="449.999989" fill-opacity="1"/><g clip-path="url(#bde1026413)"><path fill="#004aad" d="M 179.386719 230.355469 L 186.925781 221.796875 C 190.5 226.140625 195.484375 228.949219 201.359375 229.71875 L 201.359375 272.003906 L 160.222656 295.511719 L 119.214844 319.273438 L 78.203125 295.640625 L 37.195312 272.003906 L 37.195312 177.210938 L 59.804688 164.050781 L 59.804688 151.273438 L 26.078125 170.820312 L 26.078125 278.394531 L 119.214844 332.179688 L 212.347656 278.394531 L 212.347656 228.183594 C 220.394531 224.863281 225.890625 216.941406 225.890625 207.742188 C 225.890625 195.605469 215.925781 185.640625 203.789062 185.640625 C 196.632812 185.640625 190.246094 188.964844 186.15625 194.203125 L 178.492188 185.386719 C 183.984375 181.679688 187.433594 175.675781 188.074219 168.90625 L 214.902344 153.320312 L 255.914062 129.683594 L 296.921875 153.320312 L 337.933594 176.953125 L 337.933594 271.75 L 296.792969 295.511719 L 255.785156 319.148438 L 214.773438 295.511719 L 208.386719 291.933594 L 197.273438 298.324219 L 255.785156 332.050781 L 348.917969 278.265625 L 348.917969 170.695312 L 255.785156 116.910156 L 185.644531 157.40625 C 182.070312 150.125 174.53125 145.015625 165.84375 145.015625 C 153.707031 145.015625 143.742188 154.980469 143.742188 167.117188 C 143.742188 178.871094 153.070312 188.707031 164.949219 189.21875 L 164.949219 225.886719 C 157.027344 226.269531 150.386719 230.613281 146.554688 237.128906 L 118.957031 221.15625 L 77.949219 197.523438 L 77.949219 102.726562 L 118.957031 79.09375 L 159.96875 55.457031 L 200.976562 79.09375 L 241.988281 102.726562 L 241.988281 116.398438 L 253.101562 110.011719 L 253.101562 96.339844 L 160.09375 42.808594 L 66.960938 96.597656 L 66.960938 204.167969 L 143.742188 248.625 C 143.871094 260.761719 153.707031 270.601562 165.84375 270.601562 C 177.980469 270.601562 187.945312 260.632812 187.945312 248.496094 C 188.203125 240.832031 184.625 234.445312 179.386719 230.355469 Z M 185.773438 220.136719 L 177.851562 229.078125 C 174.660156 227.035156 171.082031 225.886719 167.121094 225.757812 L 167.121094 189.21875 C 170.699219 189.089844 174.019531 188.070312 177.085938 186.410156 L 185.390625 195.734375 C 183.089844 199.054688 182.070312 203.273438 182.070312 207.488281 C 181.8125 212.34375 183.347656 216.6875 185.773438 220.136719 Z M 185.773438 220.136719 " fill-opacity="1" fill-rule="evenodd"/></g><g clip-path="url(#f3a90d7179)"><g clip-path="url(#1fca40c225)"><path fill="#6ee4ff" d="M 141.351562 142.8125 L 187.691406 142.8125 L 187.691406 189.152344 L 141.351562 189.152344 Z M 141.351562 142.8125 " fill-opacity="1" fill-rule="nonzero"/></g></g><g clip-path="url(#a528a738cb)"><g clip-path="url(#2e845c7ec4)"><path fill="#6ee4ff" d="M 143.003906 224.421875 L 189.339844 224.421875 L 189.339844 270.757812 L 143.003906 270.757812 Z M 143.003906 224.421875 " fill-opacity="1" fill-rule="nonzero"/></g></g><g clip-path="url(#3f46a3ddbc)"><g clip-path="url(#17c7de5fef)"><path fill="#6ee4ff" d="M 180.863281 184.199219 L 227.199219 184.199219 L 227.199219 230.535156 L 180.863281 230.535156 Z M 180.863281 184.199219 " fill-opacity="1" fill-rule="nonzero"/></g></g></svg>