<svg xmlns="http://www.w3.org/2000/svg" xmlns:xlink="http://www.w3.org/1999/xlink" width="1366" zoomAndPan="magnify" viewBox="0 0 1024.5 576" height="768" preserveAspectRatio="xMidYMid meet" version="1.0"><defs><g/><clipPath id="35eb695bd1"><path d="M 399.589844 134.066406 L 640.972656 134.066406 L 640.972656 350.710938 L 399.589844 350.710938 Z M 399.589844 134.066406 " clip-rule="nonzero"/></clipPath><clipPath id="a2e7cedd52"><path d="M 485.832031 209.023438 L 520.496094 209.023438 L 520.496094 243.691406 L 485.832031 243.691406 Z M 485.832031 209.023438 " clip-rule="nonzero"/></clipPath><clipPath id="316e36d95a"><path d="M 503.164062 209.023438 C 493.589844 209.023438 485.832031 216.785156 485.832031 226.355469 C 485.832031 235.929688 493.589844 243.691406 503.164062 243.691406 C 512.738281 243.691406 520.496094 235.929688 520.496094 226.355469 C 520.496094 216.785156 512.738281 209.023438 503.164062 209.023438 Z M 503.164062 209.023438 " clip-rule="nonzero"/></clipPath><clipPath id="7d5e80b736"><path d="M 487.066406 270.078125 L 521.734375 270.078125 L 521.734375 304.746094 L 487.066406 304.746094 Z M 487.066406 270.078125 " clip-rule="nonzero"/></clipPath><clipPath id="db4d75a4b4"><path d="M 504.398438 270.078125 C 494.828125 270.078125 487.066406 277.839844 487.066406 287.410156 C 487.066406 296.984375 494.828125 304.746094 504.398438 304.746094 C 513.972656 304.746094 521.734375 296.984375 521.734375 287.410156 C 521.734375 277.839844 513.972656 270.078125 504.398438 270.078125 Z M 504.398438 270.078125 " clip-rule="nonzero"/></clipPath><clipPath id="4fa40dfbe1"><path d="M 515.390625 239.984375 L 550.058594 239.984375 L 550.058594 274.652344 L 515.390625 274.652344 Z M 515.390625 239.984375 " clip-rule="nonzero"/></clipPath><clipPath id="cd8d8f0d1d"><path d="M 532.722656 239.984375 C 523.148438 239.984375 515.390625 247.746094 515.390625 257.316406 C 515.390625 266.890625 523.148438 274.652344 532.722656 274.652344 C 542.296875 274.652344 550.058594 266.890625 550.058594 257.316406 C 550.058594 247.746094 542.296875 239.984375 532.722656 239.984375 Z M 532.722656 239.984375 " clip-rule="nonzero"/></clipPath></defs><g clip-path="url(#35eb695bd1)"><path fill="#004aad" d="M 514.28125 274.519531 L 519.921875 268.117188 C 522.597656 271.367188 526.324219 273.46875 530.722656 274.042969 L 530.722656 305.679688 L 499.945312 323.265625 L 469.265625 341.042969 L 438.585938 323.359375 L 407.90625 305.679688 L 407.90625 234.761719 L 424.824219 224.917969 L 424.824219 215.359375 L 399.589844 229.980469 L 399.589844 310.457031 L 469.265625 350.695312 L 538.941406 310.457031 L 538.941406 272.894531 C 544.960938 270.410156 549.074219 264.484375 549.074219 257.605469 C 549.074219 248.523438 541.617188 241.070312 532.539062 241.070312 C 527.183594 241.070312 522.40625 243.554688 519.347656 247.472656 L 513.613281 240.878906 C 517.722656 238.105469 520.304688 233.613281 520.78125 228.546875 L 540.851562 216.886719 L 571.53125 199.207031 L 602.214844 216.886719 L 632.894531 234.570312 L 632.894531 305.488281 L 602.117188 323.265625 L 571.4375 340.945312 L 540.757812 323.265625 L 535.976562 320.589844 L 527.664062 325.367188 L 571.4375 350.601562 L 641.113281 310.363281 L 641.113281 229.886719 L 571.4375 189.648438 L 518.964844 219.945312 C 516.289062 214.5 510.652344 210.675781 504.152344 210.675781 C 495.070312 210.675781 487.617188 218.128906 487.617188 227.210938 C 487.617188 236.003906 494.59375 243.363281 503.480469 243.746094 L 503.480469 271.175781 C 497.554688 271.460938 492.585938 274.710938 489.71875 279.585938 L 469.074219 267.640625 L 438.394531 249.957031 L 438.394531 179.039062 L 469.074219 161.359375 L 499.753906 143.675781 L 530.433594 161.359375 L 561.113281 179.039062 L 561.113281 189.265625 L 569.429688 184.488281 L 569.429688 174.261719 L 499.851562 134.214844 L 430.175781 174.453125 L 430.175781 254.925781 L 487.617188 288.1875 C 487.710938 297.269531 495.070312 304.628906 504.152344 304.628906 C 513.230469 304.628906 520.6875 297.171875 520.6875 288.09375 C 520.878906 282.359375 518.199219 277.578125 514.28125 274.519531 Z M 519.0625 266.875 L 513.136719 273.566406 C 510.746094 272.035156 508.070312 271.175781 505.105469 271.078125 L 505.105469 243.746094 C 507.785156 243.648438 510.269531 242.882812 512.5625 241.640625 L 518.773438 248.621094 C 517.054688 251.105469 516.289062 254.257812 516.289062 257.414062 C 516.097656 261.042969 517.246094 264.292969 519.0625 266.875 Z M 519.0625 266.875 " fill-opacity="1" fill-rule="evenodd"/></g><g clip-path="url(#a2e7cedd52)"><g clip-path="url(#316e36d95a)"><path fill="#6ee4ff" d="M 485.832031 209.023438 L 520.496094 209.023438 L 520.496094 243.691406 L 485.832031 243.691406 Z M 485.832031 209.023438 " fill-opacity="1" fill-rule="nonzero"/></g></g><g clip-path="url(#7d5e80b736)"><g clip-path="url(#db4d75a4b4)"><path fill="#6ee4ff" d="M 487.066406 270.078125 L 521.734375 270.078125 L 521.734375 304.746094 L 487.066406 304.746094 Z M 487.066406 270.078125 " fill-opacity="1" fill-rule="nonzero"/></g></g><g clip-path="url(#4fa40dfbe1)"><g clip-path="url(#cd8d8f0d1d)"><path fill="#6ee4ff" d="M 515.390625 239.984375 L 550.058594 239.984375 L 550.058594 274.652344 L 515.390625 274.652344 Z M 515.390625 239.984375 " fill-opacity="1" fill-rule="nonzero"/></g></g><g fill="#004aad" fill-opacity="1"><g transform="translate(369.750629, 408.484421)"><g><path d="M 5.21875 -39.703125 L 21.5 -39.703125 C 27.4375 -39.703125 32.34375 -37.828125 36.21875 -34.078125 C 40.09375 -30.335938 42.03125 -25.59375 42.03125 -19.84375 C 42.03125 -14.101562 40.082031 -9.359375 36.1875 -5.609375 C 32.289062 -1.867188 27.335938 0 21.328125 0 L 5.21875 0 Z M 11.90625 -33.6875 L 11.90625 -6.015625 L 21.671875 -6.015625 C 25.566406 -6.015625 28.804688 -7.304688 31.390625 -9.890625 C 33.984375 -12.484375 35.28125 -15.785156 35.28125 -19.796875 C 35.28125 -23.804688 33.945312 -27.125 31.28125 -29.75 C 28.613281 -32.375 25.316406 -33.6875 21.390625 -33.6875 Z M 11.90625 -33.6875 "/></g></g></g><g fill="#004aad" fill-opacity="1"><g transform="translate(414.82955, 408.484421)"><g><path d="M 18.265625 -39.984375 C 23.410156 -39.984375 28.039062 -38.625 32.15625 -35.90625 L 29.375 -30 C 25.332031 -32.457031 21.457031 -33.6875 17.75 -33.6875 C 15.75 -33.6875 14.171875 -33.328125 13.015625 -32.609375 C 11.859375 -31.890625 11.28125 -30.867188 11.28125 -29.546875 C 11.28125 -28.222656 11.8125 -27.097656 12.875 -26.171875 C 13.9375 -25.242188 15.257812 -24.5625 16.84375 -24.125 C 18.4375 -23.695312 20.15625 -23.148438 22 -22.484375 C 23.851562 -21.828125 25.570312 -21.128906 27.15625 -20.390625 C 28.75 -19.648438 30.066406 -18.492188 31.109375 -16.921875 C 32.148438 -15.359375 32.671875 -13.460938 32.671875 -11.234375 C 32.671875 -7.753906 31.28125 -4.972656 28.5 -2.890625 C 25.71875 -0.804688 22.117188 0.234375 17.703125 0.234375 C 14.671875 0.234375 11.738281 -0.332031 8.90625 -1.46875 C 6.070312 -2.601562 3.59375 -4.132812 1.46875 -6.0625 L 4.375 -11.859375 C 6.375 -10.003906 8.570312 -8.570312 10.96875 -7.5625 C 13.375 -6.5625 15.65625 -6.0625 17.8125 -6.0625 C 20.15625 -6.0625 21.976562 -6.488281 23.28125 -7.34375 C 24.582031 -8.195312 25.234375 -9.378906 25.234375 -10.890625 C 25.234375 -12.253906 24.703125 -13.398438 23.640625 -14.328125 C 22.585938 -15.253906 21.265625 -15.929688 19.671875 -16.359375 C 18.085938 -16.796875 16.367188 -17.328125 14.515625 -17.953125 C 12.660156 -18.578125 10.9375 -19.238281 9.34375 -19.9375 C 7.757812 -20.632812 6.4375 -21.757812 5.375 -23.3125 C 4.320312 -24.863281 3.796875 -26.734375 3.796875 -28.921875 C 3.796875 -32.285156 5.117188 -34.96875 7.765625 -36.96875 C 10.410156 -38.976562 13.910156 -39.984375 18.265625 -39.984375 Z M 18.265625 -39.984375 "/></g></g></g><g fill="#004aad" fill-opacity="1"><g transform="translate(451.232977, 408.484421)"><g><path d="M 23.9375 -39.703125 L 23.9375 -12.25 C 23.9375 -8.28125 22.835938 -5.195312 20.640625 -3 C 18.453125 -0.8125 15.429688 0.28125 11.578125 0.28125 C 6.878906 0.28125 2.984375 -1.625 -0.109375 -5.4375 L 3.0625 -10.546875 C 5.75 -7.640625 8.566406 -6.1875 11.515625 -6.1875 C 13.328125 -6.1875 14.722656 -6.722656 15.703125 -7.796875 C 16.691406 -8.878906 17.1875 -10.441406 17.1875 -12.484375 L 17.1875 -33.6875 L 3.453125 -33.6875 L 3.453125 -39.703125 Z M 23.9375 -39.703125 "/></g></g></g><g fill="#004aad" fill-opacity="1"><g transform="translate(480.661983, 408.484421)"><g/></g></g><g fill="#004aad" fill-opacity="1"><g transform="translate(496.425666, 408.484421)"><g><path d="M 32.328125 -33.6875 L 19.734375 -33.6875 L 19.734375 0 L 13.046875 0 L 13.046875 -33.6875 L 0.515625 -33.6875 L 0.515625 -39.703125 L 32.328125 -39.703125 Z M 32.328125 -33.6875 "/></g></g></g><g fill="#004aad" fill-opacity="1"><g transform="translate(530.390881, 408.484421)"><g><path d="M 33.578125 -33.6875 L 11.90625 -33.6875 L 11.90625 -22.96875 L 31.3125 -22.96875 L 31.3125 -16.953125 L 11.90625 -16.953125 L 11.90625 -6.015625 L 34.265625 -6.015625 L 34.265625 0 L 5.21875 0 L 5.21875 -39.703125 L 33.578125 -39.703125 Z M 33.578125 -33.6875 "/></g></g></g><g fill="#004aad" fill-opacity="1"><g transform="translate(568.72218, 408.484421)"><g><path d="M 22.796875 -39.875 C 25.597656 -39.875 28.332031 -39.332031 31 -38.25 C 33.664062 -37.175781 35.960938 -35.675781 37.890625 -33.75 L 33.96875 -28.875 C 32.53125 -30.425781 30.828125 -31.65625 28.859375 -32.5625 C 26.898438 -33.46875 24.921875 -33.921875 22.921875 -33.921875 C 18.941406 -33.921875 15.582031 -32.566406 12.84375 -29.859375 C 10.101562 -27.160156 8.734375 -23.863281 8.734375 -19.96875 C 8.734375 -16.03125 10.101562 -12.707031 12.84375 -10 C 15.582031 -7.300781 18.941406 -5.953125 22.921875 -5.953125 C 27.035156 -5.953125 30.71875 -7.519531 33.96875 -10.65625 L 37.9375 -6.234375 C 35.894531 -4.234375 33.515625 -2.644531 30.796875 -1.46875 C 28.078125 -0.300781 25.335938 0.28125 22.578125 0.28125 C 16.753906 0.28125 11.851562 -1.65625 7.875 -5.53125 C 3.90625 -9.40625 1.921875 -14.195312 1.921875 -19.90625 C 1.921875 -25.539062 3.9375 -30.273438 7.96875 -34.109375 C 12 -37.953125 16.941406 -39.875 22.796875 -39.875 Z M 22.796875 -39.875 "/></g></g></g><g fill="#004aad" fill-opacity="1"><g transform="translate(609.378281, 408.484421)"><g><path d="M 39.640625 0 L 32.953125 0 L 32.953125 -16.453125 L 11.90625 -16.453125 L 11.90625 0 L 5.21875 0 L 5.21875 -39.703125 L 11.90625 -39.703125 L 11.90625 -22.453125 L 32.953125 -22.453125 L 32.953125 -39.703125 L 39.640625 -39.703125 Z M 39.640625 0 "/></g></g></g><g fill="#1786f9" fill-opacity="1"><g transform="translate(437.90516, 434.322265)"><g><path d="M 5.796875 -6.28125 C 4.191406 -6.738281 3.023438 -7.300781 2.296875 -7.96875 C 1.578125 -8.632812 1.21875 -9.460938 1.21875 -10.453125 C 1.21875 -11.554688 1.660156 -12.472656 2.546875 -13.203125 C 3.429688 -13.929688 4.585938 -14.296875 6.015625 -14.296875 C 6.984375 -14.296875 7.84375 -14.109375 8.59375 -13.734375 C 9.351562 -13.359375 9.941406 -12.835938 10.359375 -12.171875 C 10.773438 -11.515625 10.984375 -10.796875 10.984375 -10.015625 L 9.125 -10.015625 C 9.125 -10.867188 8.851562 -11.539062 8.3125 -12.03125 C 7.769531 -12.519531 7.003906 -12.765625 6.015625 -12.765625 C 5.097656 -12.765625 4.378906 -12.5625 3.859375 -12.15625 C 3.347656 -11.75 3.09375 -11.1875 3.09375 -10.46875 C 3.09375 -9.894531 3.335938 -9.410156 3.828125 -9.015625 C 4.316406 -8.617188 5.144531 -8.253906 6.3125 -7.921875 C 7.488281 -7.597656 8.40625 -7.238281 9.0625 -6.84375 C 9.726562 -6.445312 10.21875 -5.984375 10.53125 -5.453125 C 10.851562 -4.921875 11.015625 -4.296875 11.015625 -3.578125 C 11.015625 -2.441406 10.566406 -1.53125 9.671875 -0.84375 C 8.785156 -0.15625 7.597656 0.1875 6.109375 0.1875 C 5.140625 0.1875 4.234375 0.00390625 3.390625 -0.359375 C 2.554688 -0.734375 1.910156 -1.242188 1.453125 -1.890625 C 1.003906 -2.535156 0.78125 -3.265625 0.78125 -4.078125 L 2.640625 -4.078125 C 2.640625 -3.234375 2.953125 -2.5625 3.578125 -2.0625 C 4.210938 -1.570312 5.054688 -1.328125 6.109375 -1.328125 C 7.085938 -1.328125 7.835938 -1.523438 8.359375 -1.921875 C 8.890625 -2.328125 9.15625 -2.875 9.15625 -3.5625 C 9.15625 -4.25 8.910156 -4.78125 8.421875 -5.15625 C 7.941406 -5.539062 7.066406 -5.914062 5.796875 -6.28125 Z M 5.796875 -6.28125 "/></g></g></g><g fill="#1786f9" fill-opacity="1"><g transform="translate(454.979469, 434.322265)"><g><path d="M 12.484375 -6.59375 C 12.484375 -5.207031 12.25 -4 11.78125 -2.96875 C 11.3125 -1.945312 10.648438 -1.164062 9.796875 -0.625 C 8.953125 -0.0820312 7.960938 0.1875 6.828125 0.1875 C 5.710938 0.1875 4.722656 -0.0820312 3.859375 -0.625 C 3.003906 -1.164062 2.335938 -1.941406 1.859375 -2.953125 C 1.390625 -3.960938 1.148438 -5.132812 1.140625 -6.46875 L 1.140625 -7.484375 C 1.140625 -8.835938 1.375 -10.035156 1.84375 -11.078125 C 2.320312 -12.117188 2.988281 -12.914062 3.84375 -13.46875 C 4.707031 -14.019531 5.695312 -14.296875 6.8125 -14.296875 C 7.9375 -14.296875 8.925781 -14.019531 9.78125 -13.46875 C 10.644531 -12.925781 11.3125 -12.132812 11.78125 -11.09375 C 12.25 -10.0625 12.484375 -8.859375 12.484375 -7.484375 Z M 10.625 -7.5 C 10.625 -9.175781 10.285156 -10.457031 9.609375 -11.34375 C 8.941406 -12.238281 8.007812 -12.6875 6.8125 -12.6875 C 5.632812 -12.6875 4.707031 -12.238281 4.03125 -11.34375 C 3.351562 -10.457031 3.003906 -9.21875 2.984375 -7.625 L 2.984375 -6.59375 C 2.984375 -4.96875 3.320312 -3.691406 4 -2.765625 C 4.6875 -1.847656 5.628906 -1.390625 6.828125 -1.390625 C 8.023438 -1.390625 8.953125 -1.828125 9.609375 -2.703125 C 10.265625 -3.578125 10.601562 -4.828125 10.625 -6.453125 Z M 10.625 -7.5 "/></g></g></g><g fill="#1786f9" fill-opacity="1"><g transform="translate(473.921645, 434.322265)"><g><path d="M 3.5 -1.515625 L 10.1875 -1.515625 L 10.1875 0 L 1.640625 0 L 1.640625 -14.09375 L 3.5 -14.09375 Z M 3.5 -1.515625 "/></g></g></g><g fill="#1786f9" fill-opacity="1"><g transform="translate(489.902318, 434.322265)"><g><path d="M 11.5625 -14.09375 L 11.5625 -4.515625 C 11.550781 -3.179688 11.128906 -2.09375 10.296875 -1.25 C 9.472656 -0.40625 8.351562 0.0664062 6.9375 0.171875 L 6.4375 0.1875 C 4.894531 0.1875 3.664062 -0.222656 2.75 -1.046875 C 1.832031 -1.878906 1.367188 -3.03125 1.359375 -4.5 L 1.359375 -14.09375 L 3.1875 -14.09375 L 3.1875 -4.546875 C 3.1875 -3.523438 3.46875 -2.734375 4.03125 -2.171875 C 4.59375 -1.609375 5.394531 -1.328125 6.4375 -1.328125 C 7.488281 -1.328125 8.289062 -1.609375 8.84375 -2.171875 C 9.40625 -2.734375 9.6875 -3.523438 9.6875 -4.546875 L 9.6875 -14.09375 Z M 11.5625 -14.09375 "/></g></g></g><g fill="#1786f9" fill-opacity="1"><g transform="translate(508.070245, 434.322265)"><g><path d="M 11.375 -12.5625 L 6.84375 -12.5625 L 6.84375 0 L 5 0 L 5 -12.5625 L 0.46875 -12.5625 L 0.46875 -14.09375 L 11.375 -14.09375 Z M 11.375 -12.5625 "/></g></g></g><g fill="#1786f9" fill-opacity="1"><g transform="translate(525.212292, 434.322265)"><g><path d="M 3.625 0 L 1.765625 0 L 1.765625 -14.09375 L 3.625 -14.09375 Z M 3.625 0 "/></g></g></g><g fill="#1786f9" fill-opacity="1"><g transform="translate(535.9184, 434.322265)"><g><path d="M 12.484375 -6.59375 C 12.484375 -5.207031 12.25 -4 11.78125 -2.96875 C 11.3125 -1.945312 10.648438 -1.164062 9.796875 -0.625 C 8.953125 -0.0820312 7.960938 0.1875 6.828125 0.1875 C 5.710938 0.1875 4.722656 -0.0820312 3.859375 -0.625 C 3.003906 -1.164062 2.335938 -1.941406 1.859375 -2.953125 C 1.390625 -3.960938 1.148438 -5.132812 1.140625 -6.46875 L 1.140625 -7.484375 C 1.140625 -8.835938 1.375 -10.035156 1.84375 -11.078125 C 2.320312 -12.117188 2.988281 -12.914062 3.84375 -13.46875 C 4.707031 -14.019531 5.695312 -14.296875 6.8125 -14.296875 C 7.9375 -14.296875 8.925781 -14.019531 9.78125 -13.46875 C 10.644531 -12.925781 11.3125 -12.132812 11.78125 -11.09375 C 12.25 -10.0625 12.484375 -8.859375 12.484375 -7.484375 Z M 10.625 -7.5 C 10.625 -9.175781 10.285156 -10.457031 9.609375 -11.34375 C 8.941406 -12.238281 8.007812 -12.6875 6.8125 -12.6875 C 5.632812 -12.6875 4.707031 -12.238281 4.03125 -11.34375 C 3.351562 -10.457031 3.003906 -9.21875 2.984375 -7.625 L 2.984375 -6.59375 C 2.984375 -4.96875 3.320312 -3.691406 4 -2.765625 C 4.6875 -1.847656 5.628906 -1.390625 6.828125 -1.390625 C 8.023438 -1.390625 8.953125 -1.828125 9.609375 -2.703125 C 10.265625 -3.578125 10.601562 -4.828125 10.625 -6.453125 Z M 10.625 -7.5 "/></g></g></g><g fill="#1786f9" fill-opacity="1"><g transform="translate(554.860577, 434.322265)"><g><path d="M 12.46875 0 L 10.59375 0 L 3.5 -10.859375 L 3.5 0 L 1.640625 0 L 1.640625 -14.09375 L 3.5 -14.09375 L 10.625 -3.1875 L 10.625 -14.09375 L 12.46875 -14.09375 Z M 12.46875 0 "/></g></g></g><g fill="#1786f9" fill-opacity="1"><g transform="translate(574.306015, 434.322265)"><g><path d="M 5.796875 -6.28125 C 4.191406 -6.738281 3.023438 -7.300781 2.296875 -7.96875 C 1.578125 -8.632812 1.21875 -9.460938 1.21875 -10.453125 C 1.21875 -11.554688 1.660156 -12.472656 2.546875 -13.203125 C 3.429688 -13.929688 4.585938 -14.296875 6.015625 -14.296875 C 6.984375 -14.296875 7.84375 -14.109375 8.59375 -13.734375 C 9.351562 -13.359375 9.941406 -12.835938 10.359375 -12.171875 C 10.773438 -11.515625 10.984375 -10.796875 10.984375 -10.015625 L 9.125 -10.015625 C 9.125 -10.867188 8.851562 -11.539062 8.3125 -12.03125 C 7.769531 -12.519531 7.003906 -12.765625 6.015625 -12.765625 C 5.097656 -12.765625 4.378906 -12.5625 3.859375 -12.15625 C 3.347656 -11.75 3.09375 -11.1875 3.09375 -10.46875 C 3.09375 -9.894531 3.335938 -9.410156 3.828125 -9.015625 C 4.316406 -8.617188 5.144531 -8.253906 6.3125 -7.921875 C 7.488281 -7.597656 8.40625 -7.238281 9.0625 -6.84375 C 9.726562 -6.445312 10.21875 -5.984375 10.53125 -5.453125 C 10.851562 -4.921875 11.015625 -4.296875 11.015625 -3.578125 C 11.015625 -2.441406 10.566406 -1.53125 9.671875 -0.84375 C 8.785156 -0.15625 7.597656 0.1875 6.109375 0.1875 C 5.140625 0.1875 4.234375 0.00390625 3.390625 -0.359375 C 2.554688 -0.734375 1.910156 -1.242188 1.453125 -1.890625 C 1.003906 -2.535156 0.78125 -3.265625 0.78125 -4.078125 L 2.640625 -4.078125 C 2.640625 -3.234375 2.953125 -2.5625 3.578125 -2.0625 C 4.210938 -1.570312 5.054688 -1.328125 6.109375 -1.328125 C 7.085938 -1.328125 7.835938 -1.523438 8.359375 -1.921875 C 8.890625 -2.328125 9.15625 -2.875 9.15625 -3.5625 C 9.15625 -4.25 8.910156 -4.78125 8.421875 -5.15625 C 7.941406 -5.539062 7.066406 -5.914062 5.796875 -6.28125 Z M 5.796875 -6.28125 "/></g></g></g></svg>