<svg xmlns="http://www.w3.org/2000/svg" xmlns:xlink="http://www.w3.org/1999/xlink" width="500" zoomAndPan="magnify" viewBox="0 0 375 374.999991" height="500" preserveAspectRatio="xMidYMid meet" version="1.0"><defs><g/><clipPath id="83bbc95c62"><path d="M 81.308594 48.730469 L 309.335938 48.730469 L 309.335938 253.386719 L 81.308594 253.386719 Z M 81.308594 48.730469 " clip-rule="nonzero"/></clipPath><clipPath id="489b31f9e4"><path d="M 162.777344 119.539062 L 195.527344 119.539062 L 195.527344 152.285156 L 162.777344 152.285156 Z M 162.777344 119.539062 " clip-rule="nonzero"/></clipPath><clipPath id="d612920528"><path d="M 179.152344 119.539062 C 170.109375 119.539062 162.777344 126.867188 162.777344 135.910156 C 162.777344 144.953125 170.109375 152.285156 179.152344 152.285156 C 188.195312 152.285156 195.527344 144.953125 195.527344 135.910156 C 195.527344 126.867188 188.195312 119.539062 179.152344 119.539062 Z M 179.152344 119.539062 " clip-rule="nonzero"/></clipPath><clipPath id="4b8d1f3aa0"><path d="M 163.945312 177.214844 L 196.695312 177.214844 L 196.695312 209.964844 L 163.945312 209.964844 Z M 163.945312 177.214844 " clip-rule="nonzero"/></clipPath><clipPath id="dc7659dd4e"><path d="M 180.320312 177.214844 C 171.277344 177.214844 163.945312 184.546875 163.945312 193.589844 C 163.945312 202.632812 171.277344 209.964844 180.320312 209.964844 C 189.363281 209.964844 196.695312 202.632812 196.695312 193.589844 C 196.695312 184.546875 189.363281 177.214844 180.320312 177.214844 Z M 180.320312 177.214844 " clip-rule="nonzero"/></clipPath><clipPath id="43fc7d701b"><path d="M 190.703125 148.785156 L 223.453125 148.785156 L 223.453125 181.535156 L 190.703125 181.535156 Z M 190.703125 148.785156 " clip-rule="nonzero"/></clipPath><clipPath id="e820c6f24e"><path d="M 207.078125 148.785156 C 198.035156 148.785156 190.703125 156.117188 190.703125 165.160156 C 190.703125 174.203125 198.035156 181.535156 207.078125 181.535156 C 216.121094 181.535156 223.453125 174.203125 223.453125 165.160156 C 223.453125 156.117188 216.121094 148.785156 207.078125 148.785156 Z M 207.078125 148.785156 " clip-rule="nonzero"/></clipPath></defs><rect x="-37.5" width="450" fill="#ffffff" y="-37.499999" height="449.999989" fill-opacity="1"/><rect x="-37.5" width="450" fill="#ffffff" y="-37.499999" height="449.999989" fill-opacity="1"/><g clip-path="url(#83bbc95c62)"><path fill="#004aad" d="M 189.65625 181.410156 L 194.984375 175.363281 C 197.511719 178.433594 201.03125 180.417969 205.1875 180.960938 L 205.1875 210.84375 L 176.113281 227.457031 L 147.128906 244.253906 L 118.148438 227.550781 L 89.164062 210.84375 L 89.164062 143.851562 L 105.144531 134.550781 L 105.144531 125.523438 L 81.308594 139.335938 L 81.308594 215.359375 L 147.128906 253.371094 L 212.949219 215.359375 L 212.949219 179.875 C 218.640625 177.527344 222.523438 171.929688 222.523438 165.429688 C 222.523438 156.851562 215.480469 149.808594 206.902344 149.808594 C 201.84375 149.808594 197.332031 152.15625 194.441406 155.859375 L 189.023438 149.628906 C 192.90625 147.011719 195.34375 142.765625 195.796875 137.980469 L 214.757812 126.964844 L 243.738281 110.261719 L 272.722656 126.964844 L 301.707031 143.671875 L 301.707031 210.664062 L 272.632812 227.457031 L 243.648438 244.164062 L 214.667969 227.457031 L 210.152344 224.929688 L 202.296875 229.445312 L 243.648438 253.28125 L 309.46875 215.269531 L 309.46875 139.246094 L 243.648438 101.234375 L 194.082031 129.855469 C 191.550781 124.710938 186.226562 121.097656 180.085938 121.097656 C 171.507812 121.097656 164.464844 128.140625 164.464844 136.71875 C 164.464844 145.023438 171.054688 151.976562 179.453125 152.339844 L 179.453125 178.25 C 173.855469 178.523438 169.160156 181.59375 166.453125 186.195312 L 146.949219 174.910156 L 117.964844 158.207031 L 117.964844 91.210938 L 175.933594 57.804688 L 204.914062 74.507812 L 233.898438 91.210938 L 233.898438 100.875 L 241.753906 96.359375 L 241.753906 86.699219 L 176.023438 48.867188 L 110.203125 86.878906 L 110.203125 162.902344 L 164.464844 194.324219 C 164.554688 202.898438 171.507812 209.851562 180.085938 209.851562 C 188.664062 209.851562 195.707031 202.808594 195.707031 194.234375 C 195.886719 188.816406 193.359375 184.300781 189.65625 181.410156 Z M 194.171875 174.1875 L 188.574219 180.507812 C 186.316406 179.0625 183.789062 178.25 180.988281 178.160156 L 180.988281 152.339844 C 183.515625 152.246094 185.863281 151.527344 188.03125 150.351562 L 193.898438 156.941406 C 192.273438 159.289062 191.550781 162.269531 191.550781 165.25 C 191.371094 168.679688 192.457031 171.75 194.171875 174.1875 Z M 194.171875 174.1875 " fill-opacity="1" fill-rule="evenodd"/></g><g clip-path="url(#489b31f9e4)"><g clip-path="url(#d612920528)"><path fill="#6ee4ff" d="M 162.777344 119.539062 L 195.527344 119.539062 L 195.527344 152.285156 L 162.777344 152.285156 Z M 162.777344 119.539062 " fill-opacity="1" fill-rule="nonzero"/></g></g><g clip-path="url(#4b8d1f3aa0)"><g clip-path="url(#dc7659dd4e)"><path fill="#6ee4ff" d="M 163.945312 177.214844 L 196.695312 177.214844 L 196.695312 209.964844 L 163.945312 209.964844 Z M 163.945312 177.214844 " fill-opacity="1" fill-rule="nonzero"/></g></g><g clip-path="url(#43fc7d701b)"><g clip-path="url(#e820c6f24e)"><path fill="#6ee4ff" d="M 190.703125 148.785156 L 223.453125 148.785156 L 223.453125 181.535156 L 190.703125 181.535156 Z M 190.703125 148.785156 " fill-opacity="1" fill-rule="nonzero"/></g></g><g fill="#004aad" fill-opacity="1"><g transform="translate(53.119839, 307.964039)"><g><path d="M 4.921875 -37.5 L 20.3125 -37.5 C 25.914062 -37.5 30.546875 -35.726562 34.203125 -32.1875 C 37.867188 -28.65625 39.703125 -24.175781 39.703125 -18.75 C 39.703125 -13.320312 37.863281 -8.835938 34.1875 -5.296875 C 30.507812 -1.765625 25.828125 0 20.140625 0 L 4.921875 0 Z M 11.25 -31.828125 L 11.25 -5.671875 L 20.46875 -5.671875 C 24.144531 -5.671875 27.207031 -6.894531 29.65625 -9.34375 C 32.101562 -11.789062 33.328125 -14.90625 33.328125 -18.6875 C 33.328125 -22.476562 32.066406 -25.613281 29.546875 -28.09375 C 27.023438 -30.582031 23.910156 -31.828125 20.203125 -31.828125 Z M 11.25 -31.828125 "/></g></g></g><g fill="#004aad" fill-opacity="1"><g transform="translate(95.704963, 307.964039)"><g><path d="M 17.25 -37.765625 C 22.101562 -37.765625 26.476562 -36.484375 30.375 -33.921875 L 27.75 -28.34375 C 23.925781 -30.664062 20.265625 -31.828125 16.765625 -31.828125 C 14.878906 -31.828125 13.390625 -31.488281 12.296875 -30.8125 C 11.203125 -30.132812 10.65625 -29.164062 10.65625 -27.90625 C 10.65625 -26.65625 11.15625 -25.59375 12.15625 -24.71875 C 13.15625 -23.84375 14.40625 -23.203125 15.90625 -22.796875 C 17.40625 -22.390625 19.03125 -21.875 20.78125 -21.25 C 22.53125 -20.625 24.15625 -19.960938 25.65625 -19.265625 C 27.164062 -18.566406 28.410156 -17.472656 29.390625 -15.984375 C 30.367188 -14.503906 30.859375 -12.710938 30.859375 -10.609375 C 30.859375 -7.316406 29.546875 -4.6875 26.921875 -2.71875 C 24.296875 -0.757812 20.894531 0.21875 16.71875 0.21875 C 13.863281 0.21875 11.09375 -0.316406 8.40625 -1.390625 C 5.726562 -2.460938 3.390625 -3.910156 1.390625 -5.734375 L 4.125 -11.203125 C 6.019531 -9.453125 8.097656 -8.101562 10.359375 -7.15625 C 12.628906 -6.207031 14.785156 -5.734375 16.828125 -5.734375 C 19.035156 -5.734375 20.753906 -6.132812 21.984375 -6.9375 C 23.222656 -7.738281 23.84375 -8.851562 23.84375 -10.28125 C 23.84375 -11.570312 23.34375 -12.65625 22.34375 -13.53125 C 21.34375 -14.40625 20.09375 -15.046875 18.59375 -15.453125 C 17.09375 -15.867188 15.46875 -16.367188 13.71875 -16.953125 C 11.96875 -17.546875 10.34375 -18.171875 8.84375 -18.828125 C 7.34375 -19.492188 6.09375 -20.554688 5.09375 -22.015625 C 4.09375 -23.484375 3.59375 -25.253906 3.59375 -27.328125 C 3.59375 -30.503906 4.84375 -33.035156 7.34375 -34.921875 C 9.84375 -36.816406 13.144531 -37.765625 17.25 -37.765625 Z M 17.25 -37.765625 "/></g></g></g><g fill="#004aad" fill-opacity="1"><g transform="translate(130.094527, 307.964039)"><g><path d="M 22.609375 -37.5 L 22.609375 -11.578125 C 22.609375 -7.828125 21.570312 -4.914062 19.5 -2.84375 C 17.425781 -0.769531 14.570312 0.265625 10.9375 0.265625 C 6.5 0.265625 2.816406 -1.535156 -0.109375 -5.140625 L 2.890625 -9.96875 C 5.429688 -7.21875 8.09375 -5.84375 10.875 -5.84375 C 12.59375 -5.84375 13.914062 -6.347656 14.84375 -7.359375 C 15.769531 -8.378906 16.234375 -9.851562 16.234375 -11.78125 L 16.234375 -31.828125 L 3.265625 -31.828125 L 3.265625 -37.5 Z M 22.609375 -37.5 "/></g></g></g><g fill="#004aad" fill-opacity="1"><g transform="translate(157.895499, 307.964039)"><g/></g></g><g fill="#004aad" fill-opacity="1"><g transform="translate(172.787124, 307.964039)"><g><path d="M 30.546875 -31.828125 L 18.640625 -31.828125 L 18.640625 0 L 12.328125 0 L 12.328125 -31.828125 L 0.484375 -31.828125 L 0.484375 -37.5 L 30.546875 -37.5 Z M 30.546875 -31.828125 "/></g></g></g><g fill="#004aad" fill-opacity="1"><g transform="translate(204.87336, 307.964039)"><g><path d="M 31.71875 -31.828125 L 11.25 -31.828125 L 11.25 -21.703125 L 29.578125 -21.703125 L 29.578125 -16.015625 L 11.25 -16.015625 L 11.25 -5.671875 L 32.359375 -5.671875 L 32.359375 0 L 4.921875 0 L 4.921875 -37.5 L 31.71875 -37.5 Z M 31.71875 -31.828125 "/></g></g></g><g fill="#004aad" fill-opacity="1"><g transform="translate(241.084145, 307.964039)"><g><path d="M 21.53125 -37.671875 C 24.175781 -37.671875 26.757812 -37.160156 29.28125 -36.140625 C 31.800781 -35.117188 33.972656 -33.695312 35.796875 -31.875 L 32.09375 -27.265625 C 30.738281 -28.734375 29.128906 -29.894531 27.265625 -30.75 C 25.410156 -31.613281 23.535156 -32.046875 21.640625 -32.046875 C 17.890625 -32.046875 14.71875 -30.765625 12.125 -28.203125 C 9.539062 -25.648438 8.25 -22.535156 8.25 -18.859375 C 8.25 -15.140625 9.539062 -12.003906 12.125 -9.453125 C 14.71875 -6.898438 17.890625 -5.625 21.640625 -5.625 C 25.535156 -5.625 29.019531 -7.109375 32.09375 -10.078125 L 35.84375 -5.890625 C 33.914062 -3.992188 31.664062 -2.492188 29.09375 -1.390625 C 26.519531 -0.285156 23.929688 0.265625 21.328125 0.265625 C 15.828125 0.265625 11.203125 -1.5625 7.453125 -5.21875 C 3.703125 -8.882812 1.828125 -13.414062 1.828125 -18.8125 C 1.828125 -24.132812 3.726562 -28.609375 7.53125 -32.234375 C 11.332031 -35.859375 16 -37.671875 21.53125 -37.671875 Z M 21.53125 -37.671875 "/></g></g></g><g fill="#004aad" fill-opacity="1"><g transform="translate(279.491122, 307.964039)"><g><path d="M 37.453125 0 L 31.125 0 L 31.125 -15.53125 L 11.25 -15.53125 L 11.25 0 L 4.921875 0 L 4.921875 -37.5 L 11.25 -37.5 L 11.25 -21.21875 L 31.125 -21.21875 L 31.125 -37.5 L 37.453125 -37.5 Z M 37.453125 0 "/></g></g></g><g fill="#1786f9" fill-opacity="1"><g transform="translate(117.504019, 332.372535)"><g><path d="M 5.46875 -5.9375 C 3.957031 -6.375 2.859375 -6.90625 2.171875 -7.53125 C 1.492188 -8.164062 1.15625 -8.945312 1.15625 -9.875 C 1.15625 -10.914062 1.570312 -11.78125 2.40625 -12.46875 C 3.25 -13.15625 4.34375 -13.5 5.6875 -13.5 C 6.59375 -13.5 7.40625 -13.320312 8.125 -12.96875 C 8.84375 -12.613281 9.394531 -12.125 9.78125 -11.5 C 10.175781 -10.882812 10.375 -10.207031 10.375 -9.46875 L 8.609375 -9.46875 C 8.609375 -10.269531 8.351562 -10.898438 7.84375 -11.359375 C 7.332031 -11.828125 6.613281 -12.0625 5.6875 -12.0625 C 4.8125 -12.0625 4.128906 -11.867188 3.640625 -11.484375 C 3.160156 -11.097656 2.921875 -10.566406 2.921875 -9.890625 C 2.921875 -9.347656 3.148438 -8.890625 3.609375 -8.515625 C 4.078125 -8.140625 4.863281 -7.796875 5.96875 -7.484375 C 7.070312 -7.179688 7.9375 -6.84375 8.5625 -6.46875 C 9.1875 -6.09375 9.648438 -5.65625 9.953125 -5.15625 C 10.253906 -4.65625 10.40625 -4.066406 10.40625 -3.390625 C 10.40625 -2.304688 9.984375 -1.4375 9.140625 -0.78125 C 8.304688 -0.132812 7.179688 0.1875 5.765625 0.1875 C 4.859375 0.1875 4.003906 0.0078125 3.203125 -0.34375 C 2.410156 -0.695312 1.800781 -1.175781 1.375 -1.78125 C 0.945312 -2.394531 0.734375 -3.085938 0.734375 -3.859375 L 2.5 -3.859375 C 2.5 -3.054688 2.796875 -2.421875 3.390625 -1.953125 C 3.984375 -1.484375 4.773438 -1.25 5.765625 -1.25 C 6.691406 -1.25 7.398438 -1.4375 7.890625 -1.8125 C 8.390625 -2.195312 8.640625 -2.710938 8.640625 -3.359375 C 8.640625 -4.015625 8.410156 -4.519531 7.953125 -4.875 C 7.492188 -5.238281 6.664062 -5.59375 5.46875 -5.9375 Z M 5.46875 -5.9375 "/></g></g></g><g fill="#1786f9" fill-opacity="1"><g transform="translate(133.633766, 332.372535)"><g><path d="M 11.796875 -6.234375 C 11.796875 -4.921875 11.570312 -3.78125 11.125 -2.8125 C 10.6875 -1.84375 10.066406 -1.097656 9.265625 -0.578125 C 8.460938 -0.0664062 7.523438 0.1875 6.453125 0.1875 C 5.398438 0.1875 4.46875 -0.0664062 3.65625 -0.578125 C 2.84375 -1.097656 2.210938 -1.832031 1.765625 -2.78125 C 1.316406 -3.738281 1.085938 -4.847656 1.078125 -6.109375 L 1.078125 -7.078125 C 1.078125 -8.347656 1.300781 -9.472656 1.75 -10.453125 C 2.195312 -11.441406 2.828125 -12.195312 3.640625 -12.71875 C 4.453125 -13.238281 5.382812 -13.5 6.4375 -13.5 C 7.5 -13.5 8.4375 -13.238281 9.25 -12.71875 C 10.0625 -12.207031 10.6875 -11.460938 11.125 -10.484375 C 11.570312 -9.503906 11.796875 -8.367188 11.796875 -7.078125 Z M 10.046875 -7.09375 C 10.046875 -8.664062 9.726562 -9.875 9.09375 -10.71875 C 8.457031 -11.570312 7.570312 -12 6.4375 -12 C 5.320312 -12 4.445312 -11.570312 3.8125 -10.71875 C 3.175781 -9.875 2.847656 -8.703125 2.828125 -7.203125 L 2.828125 -6.234375 C 2.828125 -4.703125 3.144531 -3.5 3.78125 -2.625 C 4.425781 -1.75 5.316406 -1.3125 6.453125 -1.3125 C 7.585938 -1.3125 8.460938 -1.722656 9.078125 -2.546875 C 9.703125 -3.367188 10.023438 -4.550781 10.046875 -6.09375 Z M 10.046875 -7.09375 "/></g></g></g><g fill="#1786f9" fill-opacity="1"><g transform="translate(151.528048, 332.372535)"><g><path d="M 3.3125 -1.4375 L 9.625 -1.4375 L 9.625 0 L 1.546875 0 L 1.546875 -13.3125 L 3.3125 -13.3125 Z M 3.3125 -1.4375 "/></g></g></g><g fill="#1786f9" fill-opacity="1"><g transform="translate(166.624659, 332.372535)"><g><path d="M 10.921875 -13.3125 L 10.921875 -4.265625 C 10.910156 -3.003906 10.515625 -1.972656 9.734375 -1.171875 C 8.953125 -0.378906 7.890625 0.0664062 6.546875 0.171875 L 6.078125 0.1875 C 4.617188 0.1875 3.457031 -0.203125 2.59375 -0.984375 C 1.726562 -1.773438 1.289062 -2.863281 1.28125 -4.25 L 1.28125 -13.3125 L 3.015625 -13.3125 L 3.015625 -4.296875 C 3.015625 -3.335938 3.28125 -2.585938 3.8125 -2.046875 C 4.34375 -1.515625 5.097656 -1.25 6.078125 -1.25 C 7.078125 -1.25 7.835938 -1.515625 8.359375 -2.046875 C 8.890625 -2.578125 9.15625 -3.328125 9.15625 -4.296875 L 9.15625 -13.3125 Z M 10.921875 -13.3125 "/></g></g></g><g fill="#1786f9" fill-opacity="1"><g transform="translate(183.787523, 332.372535)"><g><path d="M 10.75 -11.875 L 6.46875 -11.875 L 6.46875 0 L 4.71875 0 L 4.71875 -11.875 L 0.453125 -11.875 L 0.453125 -13.3125 L 10.75 -13.3125 Z M 10.75 -11.875 "/></g></g></g><g fill="#1786f9" fill-opacity="1"><g transform="translate(199.98126, 332.372535)"><g><path d="M 3.4375 0 L 1.671875 0 L 1.671875 -13.3125 L 3.4375 -13.3125 Z M 3.4375 0 "/></g></g></g><g fill="#1786f9" fill-opacity="1"><g transform="translate(210.095099, 332.372535)"><g><path d="M 11.796875 -6.234375 C 11.796875 -4.921875 11.570312 -3.78125 11.125 -2.8125 C 10.6875 -1.84375 10.066406 -1.097656 9.265625 -0.578125 C 8.460938 -0.0664062 7.523438 0.1875 6.453125 0.1875 C 5.398438 0.1875 4.46875 -0.0664062 3.65625 -0.578125 C 2.84375 -1.097656 2.210938 -1.832031 1.765625 -2.78125 C 1.316406 -3.738281 1.085938 -4.847656 1.078125 -6.109375 L 1.078125 -7.078125 C 1.078125 -8.347656 1.300781 -9.472656 1.75 -10.453125 C 2.195312 -11.441406 2.828125 -12.195312 3.640625 -12.71875 C 4.453125 -13.238281 5.382812 -13.5 6.4375 -13.5 C 7.5 -13.5 8.4375 -13.238281 9.25 -12.71875 C 10.0625 -12.207031 10.6875 -11.460938 11.125 -10.484375 C 11.570312 -9.503906 11.796875 -8.367188 11.796875 -7.078125 Z M 10.046875 -7.09375 C 10.046875 -8.664062 9.726562 -9.875 9.09375 -10.71875 C 8.457031 -11.570312 7.570312 -12 6.4375 -12 C 5.320312 -12 4.445312 -11.570312 3.8125 -10.71875 C 3.175781 -9.875 2.847656 -8.703125 2.828125 -7.203125 L 2.828125 -6.234375 C 2.828125 -4.703125 3.144531 -3.5 3.78125 -2.625 C 4.425781 -1.75 5.316406 -1.3125 6.453125 -1.3125 C 7.585938 -1.3125 8.460938 -1.722656 9.078125 -2.546875 C 9.703125 -3.367188 10.023438 -4.550781 10.046875 -6.09375 Z M 10.046875 -7.09375 "/></g></g></g><g fill="#1786f9" fill-opacity="1"><g transform="translate(227.989381, 332.372535)"><g><path d="M 11.78125 0 L 10.015625 0 L 3.3125 -10.265625 L 3.3125 0 L 1.546875 0 L 1.546875 -13.3125 L 3.3125 -13.3125 L 10.03125 -3.015625 L 10.03125 -13.3125 L 11.78125 -13.3125 Z M 11.78125 0 "/></g></g></g><g fill="#1786f9" fill-opacity="1"><g transform="translate(246.359084, 332.372535)"><g><path d="M 5.46875 -5.9375 C 3.957031 -6.375 2.859375 -6.90625 2.171875 -7.53125 C 1.492188 -8.164062 1.15625 -8.945312 1.15625 -9.875 C 1.15625 -10.914062 1.570312 -11.78125 2.40625 -12.46875 C 3.25 -13.15625 4.34375 -13.5 5.6875 -13.5 C 6.59375 -13.5 7.40625 -13.320312 8.125 -12.96875 C 8.84375 -12.613281 9.394531 -12.125 9.78125 -11.5 C 10.175781 -10.882812 10.375 -10.207031 10.375 -9.46875 L 8.609375 -9.46875 C 8.609375 -10.269531 8.351562 -10.898438 7.84375 -11.359375 C 7.332031 -11.828125 6.613281 -12.0625 5.6875 -12.0625 C 4.8125 -12.0625 4.128906 -11.867188 3.640625 -11.484375 C 3.160156 -11.097656 2.921875 -10.566406 2.921875 -9.890625 C 2.921875 -9.347656 3.148438 -8.890625 3.609375 -8.515625 C 4.078125 -8.140625 4.863281 -7.796875 5.96875 -7.484375 C 7.070312 -7.179688 7.9375 -6.84375 8.5625 -6.46875 C 9.1875 -6.09375 9.648438 -5.65625 9.953125 -5.15625 C 10.253906 -4.65625 10.40625 -4.066406 10.40625 -3.390625 C 10.40625 -2.304688 9.984375 -1.4375 9.140625 -0.78125 C 8.304688 -0.132812 7.179688 0.1875 5.765625 0.1875 C 4.859375 0.1875 4.003906 0.0078125 3.203125 -0.34375 C 2.410156 -0.695312 1.800781 -1.175781 1.375 -1.78125 C 0.945312 -2.394531 0.734375 -3.085938 0.734375 -3.859375 L 2.5 -3.859375 C 2.5 -3.054688 2.796875 -2.421875 3.390625 -1.953125 C 3.984375 -1.484375 4.773438 -1.25 5.765625 -1.25 C 6.691406 -1.25 7.398438 -1.4375 7.890625 -1.8125 C 8.390625 -2.195312 8.640625 -2.710938 8.640625 -3.359375 C 8.640625 -4.015625 8.410156 -4.519531 7.953125 -4.875 C 7.492188 -5.238281 6.664062 -5.59375 5.46875 -5.9375 Z M 5.46875 -5.9375 "/></g></g></g></svg>